name rise37.2698peak67.6939fall79.5734.mot
datacolumns 19
datarows 29
range 23.88491200000000 23.93657400000000
endheader
time	ground_force1_vx	ground_force1_vy	ground_force1_vz	ground_force1_px	ground_force1_py	ground_force1_pz	ground_force2_vx	ground_force2_vy	ground_force2_vz	ground_force2_px	ground_force2_py	ground_force2_pz	ground_torque1_x	ground_torque1_y	ground_torque1_z	ground_torque2_x	ground_torque2_y	ground_torque2_z	
23.88491200000000	-41.84808500000000	804.52968399999997	50.34796900000000	0.13522000000000	0.00000000000000	0.09414200000000	0.00000000000000	0.00000000000000	0.00000000000000	0.00000000000000	0.00000000000000	0.00000000000000	0.00000000000000	20.34294300000000	0.00000000000000	0.00000000000000	0.00000000000000	0.00000000000000	
23.88657400000000	-42.13293400000000	802.02632300000005	50.13908100000000	0.13444000000000	0.00000000000000	0.09414000000000	0.00000000000000	0.00000000000000	0.00000000000000	0.00000000000000	0.00000000000000	0.00000000000000	0.00000000000000	20.24819400000000	0.00000000000000	0.00000000000000	0.00000000000000	0.00000000000000	
23.88824200000000	-42.42612300000000	799.44336199999998	49.90915100000000	0.13367200000000	0.00000000000000	0.09413500000000	0.00000000000000	0.00000000000000	0.00000000000000	0.00000000000000	0.00000000000000	0.00000000000000	0.00000000000000	20.15230400000000	0.00000000000000	0.00000000000000	0.00000000000000	0.00000000000000	
23.88990700000000	-42.72812500000000	796.78120699999999	49.65824800000000	0.13291700000000	0.00000000000000	0.09412600000000	0.00000000000000	0.00000000000000	0.00000000000000	0.00000000000000	0.00000000000000	0.00000000000000	0.00000000000000	20.05545400000000	0.00000000000000	0.00000000000000	0.00000000000000	0.00000000000000	
23.89158300000000	-43.03939500000000	794.04020800000001	49.38648100000000	0.13217400000000	0.00000000000000	0.09411300000000	-1.54220100000000	3.62449000000000	1.48928400000000	0.00000000000000	0.00000000000000	0.00000000000000	0.00000000000000	19.95782100000000	0.00000000000000	0.00000000000000	0.48329100000000	0.00000000000000	
23.89324800000000	-43.36037400000000	791.22064200000000	49.09399500000000	0.13144400000000	0.00000000000000	0.09409700000000	-2.47385000000000	6.94093000000000	2.51929200000000	0.00000000000000	0.00000000000000	0.00000000000000	0.00000000000000	19.85957600000000	0.00000000000000	0.00000000000000	0.83193800000000	0.00000000000000	
23.89491400000000	-43.69148200000000	788.32271600000001	48.78097300000000	0.13072600000000	0.00000000000000	0.09407700000000	-3.52883700000000	10.94262500000000	3.71332500000000	0.00000000000000	0.00000000000000	0.00000000000000	0.00000000000000	19.76088700000000	0.00000000000000	0.00000000000000	1.23879300000000	0.00000000000000	
23.89658700000000	-44.03311500000000	785.34655299999997	48.44763500000000	0.13002000000000	0.00000000000000	0.09405300000000	-4.67551000000000	15.58576200000000	5.04388400000000	0.00000000000000	0.00000000000000	0.00000000000000	0.00000000000000	19.66191400000000	0.00000000000000	0.00000000000000	1.69527800000000	0.00000000000000	
23.89824000000000	-44.38564000000000	782.29219000000001	48.09423300000000	0.12932700000000	0.00000000000000	0.09402600000000	-5.87420700000000	20.79622000000000	6.47428700000000	0.00000000000000	0.00000000000000	0.00000000000000	0.00000000000000	19.56281100000000	0.00000000000000	0.00000000000000	2.18967900000000	0.00000000000000	
23.89991000000000	-44.74939300000000	779.15957100000003	47.72105400000000	0.12864500000000	0.00000000000000	0.09399400000000	-7.07984200000000	26.47516000000000	7.96111600000000	0.32698700000000	0.00000000000000	-0.07052600000000	0.00000000000000	19.46372400000000	0.00000000000000	0.00000000000000	4.81180500000000	0.00000000000000	
23.90157700000000	-45.12467200000000	775.94854099999998	47.32841400000000	0.12797500000000	0.00000000000000	0.09395900000000	-8.24518300000000	32.50732900000000	9.45744300000000	0.33455900000000	0.00000000000000	-0.07132000000000	0.00000000000000	19.36479100000000	0.00000000000000	0.00000000000000	5.81069500000000	0.00000000000000	
23.90324900000000	-45.51173600000000	772.65884300000005	46.91666300000000	0.12731700000000	0.00000000000000	0.09392000000000	-9.32439600000000	38.77096500000000	10.91644000000000	0.34141300000000	0.00000000000000	-0.07204900000000	0.00000000000000	19.26613900000000	0.00000000000000	0.00000000000000	6.80964500000000	0.00000000000000	
23.90991500000000	-45.91079900000000	769.29011300000002	46.48617500000000	0.12666900000000	0.00000000000000	0.09387800000000	-10.27637000000000	45.14789500000000	12.29486600000000	0.34764100000000	0.00000000000000	-0.07272300000000	0.00000000000000	19.16788700000000	0.00000000000000	0.00000000000000	7.77968900000000	0.00000000000000	
23.91159200000000	-46.32202700000000	765.84187799999995	46.03735300000000	0.12603200000000	0.00000000000000	0.09383100000000	-11.06740900000000	51.53249200000000	13.55598300000000	0.35331500000000	0.00000000000000	-0.07335200000000	0.00000000000000	19.07014300000000	0.00000000000000	0.00000000000000	8.69516700000000	0.00000000000000	
23.91324700000000	-46.74553400000000	762.31355099999996	45.57062500000000	0.12540400000000	0.00000000000000	0.09378100000000	-11.67302100000000	57.83852900000000	14.67160700000000	0.35849800000000	0.00000000000000	-0.07394200000000	0.00000000000000	18.97300300000000	0.00000000000000	0.00000000000000	9.53529300000000	0.00000000000000	
23.91491100000000	-47.18137600000000	758.70443100000000	45.08644200000000	0.12478600000000	0.00000000000000	0.09372700000000	-12.07870700000000	64.00348400000000	15.62317600000000	0.36324100000000	0.00000000000000	-0.07449900000000	0.00000000000000	18.87655200000000	0.00000000000000	0.00000000000000	10.28512300000000	0.00000000000000	
23.91657500000000	-47.62955000000000	755.01370099999997	44.58527800000000	0.12417700000000	0.00000000000000	0.09366900000000	-12.27983100000000	69.99020800000000	16.40187500000000	0.36758700000000	0.00000000000000	-0.07502800000000	0.00000000000000	18.78086400000000	0.00000000000000	0.00000000000000	10.93588200000000	0.00000000000000	
23.91824800000000	-48.08998900000000	751.24042699999995	44.06762500000000	0.12357500000000	0.00000000000000	0.09360800000000	-12.28069600000000	75.78624700000000	17.00793500000000	0.37157600000000	0.00000000000000	-0.07553200000000	0.00000000000000	18.68599800000000	0.00000000000000	0.00000000000000	11.48474000000000	0.00000000000000	
23.91991300000000	-48.56255800000000	747.38355899999999	43.53399400000000	0.12298100000000	0.00000000000000	0.09354300000000	-12.09303900000000	81.40123400000000	17.44931200000000	0.37524100000000	0.00000000000000	-0.07601600000000	0.00000000000000	18.59200200000000	0.00000000000000	0.00000000000000	11.93412200000000	0.00000000000000	
23.92158200000000	-49.04705200000000	743.44193499999994	42.98491500000000	0.12239300000000	0.00000000000000	0.09347500000000	-11.73418000000000	86.86291700000000	17.73995400000000	0.37860800000000	0.00000000000000	-0.07648200000000	0.00000000000000	18.49891100000000	0.00000000000000	0.00000000000000	12.29070400000000	0.00000000000000	
23.92324600000000	-49.54319100000000	739.41427599999997	42.42093100000000	0.12181200000000	0.00000000000000	0.09340300000000	-11.22502200000000	92.21237700000000	17.89787900000000	0.38170500000000	0.00000000000000	-0.07693100000000	0.00000000000000	18.40674500000000	0.00000000000000	0.00000000000000	12.56422600000000	0.00000000000000	
23.92491200000000	-50.05061900000000	735.29919400000006	41.84260000000000	0.12123500000000	0.00000000000000	0.09332900000000	-10.58810100000000	97.49898200000000	17.94324900000000	0.38455200000000	0.00000000000000	-0.07736700000000	0.00000000000000	18.31551200000000	0.00000000000000	0.00000000000000	12.76626000000000	0.00000000000000	
23.92660000000000	-50.56890000000000	731.09519499999999	41.25049000000000	0.12066200000000	0.00000000000000	0.09325100000000	-9.84583900000000	102.77552799999999	17.89659900000000	0.38717000000000	0.00000000000000	-0.07779000000000	0.00000000000000	18.22520600000000	0.00000000000000	0.00000000000000	12.90903500000000	0.00000000000000	
23.92824600000000	-51.09751600000000	726.80068200000005	40.64518400000000	0.12009300000000	0.00000000000000	0.09316900000000	-9.01909600000000	108.09392400000000	17.77733800000000	0.38957700000000	0.00000000000000	-0.07820200000000	0.00000000000000	18.13580500000000	0.00000000000000	0.00000000000000	13.00441600000000	0.00000000000000	
23.92991300000000	-51.63586500000000	722.41395899999998	40.02727000000000	0.11952600000000	0.00000000000000	0.09308500000000	-8.12608600000000	113.50166200000000	17.60259500000000	0.39178900000000	0.00000000000000	-0.07860300000000	0.00000000000000	18.04727600000000	0.00000000000000	0.00000000000000	13.06309200000000	0.00000000000000	
23.93158600000000	-52.18325900000000	717.93324199999995	39.39734700000000	0.11896100000000	0.00000000000000	0.09299800000000	-7.18168300000000	119.03920800000000	17.38642900000000	0.39381900000000	0.00000000000000	-0.07899500000000	0.00000000000000	17.95957000000000	0.00000000000000	0.00000000000000	13.09398700000000	0.00000000000000	
23.93324100000000	-52.73892400000000	713.35666000000003	38.75602100000000	0.11839700000000	0.00000000000000	0.09290800000000	-6.19709200000000	124.73835600000000	17.13941500000000	0.39568100000000	0.00000000000000	-0.07937900000000	0.00000000000000	17.87262600000000	0.00000000000000	0.00000000000000	13.10392600000000	0.00000000000000	
23.93490900000000	-53.30199700000000	708.68226700000002	38.10390200000000	0.11783400000000	0.00000000000000	0.09281500000000	-5.17985100000000	130.62148900000000	16.86855400000000	0.39738600000000	0.00000000000000	-0.07975500000000	0.00000000000000	17.78636600000000	0.00000000000000	0.00000000000000	13.09751400000000	0.00000000000000	
23.93657400000000	-53.87152800000000	703.90804900000001	37.44160600000000	0.11726900000000	0.00000000000000	0.09272000000000	-4.13410300000000	136.70163900000000	16.57747000000000	0.39894700000000	0.00000000000000	-0.08012300000000	0.00000000000000	17.70070200000000	0.00000000000000	0.00000000000000	13.07721000000000	0.00000000000000	
